# xmcd
#
# Track frame offsets:
# 150
# 18002
# 31504
# 48006
# 63608
# 80710
# 94962
# 110114
# 124516
# 145368
# 160970
#
# Disc length: 2338 seconds
#
# Revision: 0
# Processed by: cddbd v1.5PL3 Copyright (c) Steve Scherf et al.
# Submitted via: Audion 3.0.2 (http://www.panic.com/audion/)
#
DISCID=8b09200b
DTITLE=vari - 70
DYEAR=1900
DGENRE=
TTITLE0=1
TTITLE1=1
TTITLE2=1
TTITLE3=1
TTITLE4=1
TTITLE5=1
TTITLE6=1
TTITLE7=1
TTITLE8=1
TTITLE9=1
TTITLE10=1
EXTD=
EXTT0=
EXTT1=
EXTT2=
EXTT3=
EXTT4=
EXTT5=
EXTT6=
EXTT7=
EXTT8=
EXTT9=
EXTT10=
PLAYORDER=
